<?xml version="1.0" encoding="UTF-8"?>
<svg width="18px" height="14px" viewBox="0 0 18 14" version="1.1" xmlns="http://www.w3.org/2000/svg" xmlns:xlink="http://www.w3.org/1999/xlink">
    <!-- Generator: Sketch 52.5 (67469) - http://www.bohemiancoding.com/sketch -->
    <title>checked</title>
    <desc>Created with Sketch.</desc>
    <defs>
        <polygon id="path-1" points="0.0514285714 0.0342857143 17.8277143 0.0342857143 17.8277143 13.7142857 0.0514285714 13.7142857"></polygon>
    </defs>
    <g id="Page-1" stroke="none" stroke-width="1" fill="none" fill-rule="evenodd">
        <g id="Shipment-Request-Step-2" transform="translate(-44.000000, -471.000000)">
            <g id="checked" transform="translate(44.000000, 471.000000)">
                <mask id="mask-2" fill="white">
                    <use xlink:href="#path-1"></use>
                </mask>
                <g id="Clip-2"></g>
                <path d="M0.196163277,7.2539531 C0.0642888051,7.12207863 0,6.92179428 0,6.7899198 C0,6.65804533 0.0642888051,6.46188205 0.196163277,6.33000758 L1.1201088,5.40606206 C1.38468196,5.1414889 1.78030537,5.1414889 2.04405432,5.40606206 L2.10916734,5.47364773 L5.73736375,9.36229622 C5.86923822,9.49499491 6.0654015,9.49499491 6.19810018,9.36229622 L15.0320414,0.196196204 L15.099627,0.196196204 C15.3642002,-0.0642558777 15.7598236,-0.0642558777 16.0235726,0.196196204 L16.9450454,1.12014172 C17.2087944,1.38471488 17.2087944,1.7803383 16.9450454,2.04408724 L6.39756032,12.9913168 C6.26568585,13.1231913 6.13298716,13.1874801 5.93352702,13.1874801 C5.73736375,13.1874801 5.60548927,13.1231913 5.4736148,12.9913168 L0.328037749,7.45011638 L0.196163277,7.2539531 Z" id="Fill-1" fill="#FFFFFF" mask="url(#mask-2)"></path>
            </g>
        </g>
    </g>
</svg>