<?xml version="1.0" encoding="UTF-8"?>
<svg width="15px" height="15px" viewBox="0 0 15 15" version="1.1" xmlns="http://www.w3.org/2000/svg" xmlns:xlink="http://www.w3.org/1999/xlink">
    <!-- Generator: Sketch 52.5 (67469) - http://www.bohemiancoding.com/sketch -->
    <title>cancel-music</title>
    <desc>Created with Sketch.</desc>
    <defs>
        <polygon id="path-1" points="0.00526315789 0.0539035088 14.9461842 0.0539035088 14.9461842 15.0001316 0.00526315789 15.0001316"></polygon>
    </defs>
    <g id="Page-1" stroke="none" stroke-width="1" fill="none" fill-rule="evenodd">
        <g id="Shipment-Request-Step-2" transform="translate(-46.000000, -518.000000)">
            <g id="cancel-music" transform="translate(46.000000, 518.000000)">
                <mask id="mask-2" fill="white">
                    <use xlink:href="#path-1"></use>
                </mask>
                <g id="Clip-2"></g>
                <path d="M9.24921053,7.52684211 L14.5781579,2.19824561 C15.0688596,1.70754386 15.0688596,0.912280702 14.5781579,0.421929825 C14.0878947,-0.0687719298 13.2925439,-0.0687719298 12.8018421,0.421929825 L7.47289474,5.75087719 L2.14394737,0.421929825 C1.65368421,-0.0687719298 0.858333333,-0.0687719298 0.367982456,0.421929825 C-0.122631579,0.912280702 -0.122631579,1.70754386 0.367982456,2.19824561 L5.69657895,7.52684211 L0.367982456,12.8557895 C-0.122631579,13.3464912 -0.122631579,14.1417544 0.367982456,14.6321053 C0.858333333,15.122807 1.65368421,15.122807 2.14394737,14.6321053 L7.47289474,9.30315789 L12.8018421,14.6321053 C13.2925439,15.122807 14.0878947,15.122807 14.5781579,14.6321053 C15.0688596,14.1414035 15.0688596,13.3464912 14.5781579,12.8557895 L9.24921053,7.52684211 Z" id="Fill-1" fill="#FFFFFF" mask="url(#mask-2)"></path>
            </g>
        </g>
    </g>
</svg>