<?xml version="1.0" encoding="UTF-8"?>
<svg width="20px" height="19px" viewBox="0 0 20 19" version="1.1" xmlns="http://www.w3.org/2000/svg" xmlns:xlink="http://www.w3.org/1999/xlink">
    <!-- Generator: Sketch 52.5 (67469) - http://www.bohemiancoding.com/sketch -->
    <title>stock</title>
    <desc>Created with Sketch.</desc>
    <defs>
        <polygon id="path-1" points="0.00234375 0 20 0 20 18.0769531 0.00234375 18.0769531"></polygon>
    </defs>
    <g id="Page-1" stroke="none" stroke-width="1" fill="none" fill-rule="evenodd">
        <g id="Shipment-Request-Step-2" transform="translate(-14.000000, -829.000000)">
            <g id="stock" transform="translate(14.000000, 829.000000)">
                <g id="Group-4">
                    <mask id="mask-2" fill="white">
                        <use xlink:href="#path-1"></use>
                    </mask>
                    <g id="Clip-2"></g>
                    <path d="M11.1538672,7.30773437 L12.6922656,7.30773437 C13.0108594,7.30773437 13.2691797,7.04941406 13.2691797,6.73082031 C13.2691797,6.4121875 13.0108594,6.15386719 12.6922656,6.15386719 L11.1538672,6.15386719 C10.8352734,6.15386719 10.5769531,6.4121875 10.5769531,6.73082031 C10.5769531,7.04941406 10.8352734,7.30773437 11.1538672,7.30773437 Z" id="Fill-1" fill="#FFFFFF" mask="url(#mask-2)"></path>
                    <path d="M19.4230469,8.46160156 L15.1922656,8.46160156 L15.1922656,0.576953125 C15.1922656,0.258320312 14.9339453,0 14.6153125,0 L5.3846875,0 C5.06605469,0 4.80773437,0.258320312 4.80773437,0.576953125 L4.80773437,8.46160156 L0.576953125,8.46160156 C0.258320313,8.46160156 0,8.71980469 0,9.03839844 L0,17.5 C0,17.8185937 0.258320313,18.0769531 0.576953125,18.0769531 L19.4230469,18.0769531 C19.7416797,18.0769531 20,17.8185937 20,17.5 L20,9.03839844 C20,8.71980469 19.7416797,8.46160156 19.4230469,8.46160156 Z M13.6538672,12.3077344 L15.5769531,12.3077344 L15.5769531,9.6153125 L13.6538672,9.6153125 L13.6538672,12.3077344 Z M9.03839844,3.84613281 L10.9616016,3.84613281 L10.9616016,1.15386719 L9.03839844,1.15386719 L9.03839844,3.84613281 Z M5.96160156,1.15386719 L7.8846875,1.15386719 L7.8846875,4.42304688 C7.8846875,4.74167969 8.14285156,5 8.46160156,5 L11.5383984,5 C11.8571484,5 12.1153125,4.74167969 12.1153125,4.42304688 L12.1153125,1.15386719 L14.0383984,1.15386719 L14.0383984,8.46160156 L5.96160156,8.46160156 L5.96160156,1.15386719 Z M4.23082031,12.3077344 L6.15386719,12.3077344 L6.15386719,9.6153125 L4.23082031,9.6153125 L4.23082031,12.3077344 Z M1.15386719,9.6153125 L3.07695313,9.6153125 L3.07695313,12.8846875 C3.07695313,13.2032812 3.33527344,13.4616016 3.65386719,13.4616016 L6.73082031,13.4616016 C7.04941406,13.4616016 7.30773437,13.2032812 7.30773437,12.8846875 L7.30773437,9.6153125 L9.42304688,9.6153125 L9.42304688,16.9230469 L1.15386719,16.9230469 L1.15386719,9.6153125 Z M18.8461328,16.9230469 L10.5769531,16.9230469 L10.5769531,9.6153125 L12.5,9.6153125 L12.5,12.8846875 C12.5,13.2032812 12.7583203,13.4616016 13.0769531,13.4616016 L16.1538672,13.4616016 C16.4724609,13.4616016 16.7308203,13.2032812 16.7308203,12.8846875 L16.7308203,9.6153125 L18.8461328,9.6153125 L18.8461328,16.9230469 Z" id="Fill-3" fill="#FFFFFF" mask="url(#mask-2)"></path>
                </g>
                <path d="M15.9616016,14.6153125 C15.6428516,14.6153125 15.3846875,14.8736719 15.3846875,15.1922656 C15.3846875,15.5108594 15.6428516,15.7691797 15.9616016,15.7691797 L17.5,15.7691797 C17.8185938,15.7691797 18.0769531,15.5108594 18.0769531,15.1922656 C18.0769531,14.8736719 17.8185938,14.6153125 17.5,14.6153125 L15.9616016,14.6153125 Z" id="Fill-5" fill="#FFFFFF"></path>
                <path d="M7.8846875,14.6153125 L6.34613281,14.6153125 C6.02753906,14.6153125 5.76917969,14.8736719 5.76917969,15.1922656 C5.76917969,15.5108594 6.02753906,15.7691797 6.34613281,15.7691797 L7.8846875,15.7691797 C8.20328125,15.7691797 8.46160156,15.5108594 8.46160156,15.1922656 C8.46160156,14.8736719 8.20328125,14.6153125 7.8846875,14.6153125 Z" id="Fill-6" fill="#FFFFFF"></path>
            </g>
        </g>
    </g>
</svg>