<?xml version="1.0" encoding="UTF-8"?>
<svg width="16px" height="18px" viewBox="0 0 16 18" version="1.1" xmlns="http://www.w3.org/2000/svg" xmlns:xlink="http://www.w3.org/1999/xlink">
    <!-- Generator: Sketch 52.5 (67469) - http://www.bohemiancoding.com/sketch -->
    <title>password icon</title>
    <desc>Created with Sketch.</desc>
    <defs>
        <path d="M7,12 L7,19 L18,19 L18,12 L7,12 Z M16,10 L16,7.5 C16,6.12283389 14.8765761,5 13.4941403,5 L11.5058597,5 C10.1214627,5 9,6.11996524 9,7.5 L9,10 L16,10 Z M7,10 L7,7.5 C7,5.01471863 9.01756954,3 11.5058597,3 L13.4941403,3 C15.9826579,3 18,5.01977567 18,7.5 L18,10 L20,10 L20,21 L5,21 L5,10 L7,10 Z" id="path-1"></path>
    </defs>
    <g id="Page-1" stroke="none" stroke-width="1" fill="none" fill-rule="evenodd">
        <g id="Login" transform="translate(-579.000000, -510.000000)">
            <g id="Components/Signups/Login-#4" transform="translate(545.000000, 339.000000)">
                <g id="Controls/Inputs-White/Create-Password-32px" transform="translate(25.149701, 147.000000)">
                    <g id="Molecules/Inputs/Basic/-32px-with-Icon" transform="translate(0.000000, 17.000000)">
                        <g id="Icons/24px/lock" transform="translate(4.000000, 4.000000)">
                            <mask id="mask-2" fill="white">
                                <use xlink:href="#path-1"></use>
                            </mask>
                            <use id="Combined-Shape" fill="#525A65" fill-rule="nonzero" xlink:href="#path-1"></use>
                            <g id="Colors/Dark" mask="url(#mask-2)" fill="#525A65" fill-rule="evenodd">
                                <rect x="0" y="0" width="24" height="24"></rect>
                            </g>
                        </g>
                    </g>
                </g>
            </g>
        </g>
    </g>
</svg>